# xmcd
#
# Track frame offsets:
#       150
#       10980
#       23465
#       35655
#       45875
#       56272
#       70302
#       80227
#       90152
#       99800
#       108575
#       121745
#       132335
#       146170
#
# Disc length: 2084 seconds
#
# Revision: 2
# Processed by: cddbd v1.5.2PL0 Copyright (c) Steve Scherf et al.
# Submitted via: FreeDbEdit v0.1
#
DISCID=aa08220e
DTITLE=The Stanley Brothers - Stanley Brothers Earliest Recordings
DYEAR=1900
DGENRE=
TTITLE0=Molly and Tenbrook
TTITLE1=The Rambler's Blues
TTITLE2=Mother No Longer Awaits Me at Home
TTITLE3=The Girl Behind the Bar
TTITLE4=Little Maggie
TTITLE5=The Little Glass of Wine
TTITLE6=Our Darling's Gone
TTITLE7=The Jealous Lover
TTITLE8=I Can Tell You the Time
TTITLE9=Little Birdie
TTITLE10=Little Glass of Wine (Alt. Take)
TTITLE11=Death Is Only a Dream
TTITLE12=Little Girl and the Dreadful Snake
TTITLE13=Are You Waiting Just for Me?
EXTD=
EXTT0=
EXTT1=
EXTT2=
EXTT3=
EXTT4=
EXTT5=
EXTT6=
EXTT7=
EXTT8=
EXTT9=
EXTT10=
EXTT11=
EXTT12=
EXTT13=
PLAYORDER=
